<svg width="12" height="14" viewBox="0 0 12 14" fill="none" xmlns="http://www.w3.org/2000/svg">
<path d="M8.66663 1V3.66667M3.33329 1V3.66667M0.666626 6.33333H11.3333M0.666626 3.66667C0.666626 3.31304 0.807102 2.97391 1.05715 2.72386C1.3072 2.47381 1.64634 2.33333 1.99996 2.33333H9.99996C10.3536 2.33333 10.6927 2.47381 10.9428 2.72386C11.1928 2.97391 11.3333 3.31304 11.3333 3.66667V11.6667C11.3333 12.0203 11.1928 12.3594 10.9428 12.6095C10.6927 12.8595 10.3536 13 9.99996 13H1.99996C1.64634 13 1.3072 12.8595 1.05715 12.6095C0.807102 12.3594 0.666626 12.0203 0.666626 11.6667V3.66667ZM5.33329 9.66667C5.33329 9.84348 5.40353 10.013 5.52855 10.1381C5.65358 10.2631 5.82315 10.3333 5.99996 10.3333C6.17677 10.3333 6.34634 10.2631 6.47136 10.1381C6.59639 10.013 6.66663 9.84348 6.66663 9.66667C6.66663 9.48986 6.59639 9.32029 6.47136 9.19526C6.34634 9.07024 6.17677 9 5.99996 9C5.82315 9 5.65358 9.07024 5.52855 9.19526C5.40353 9.32029 5.33329 9.48986 5.33329 9.66667Z" stroke="#ACB5BB" stroke-width="1.3" stroke-linecap="round" stroke-linejoin="round"/>
</svg>
