<svg width="20" height="20" viewBox="0 0 20 20" fill="none" xmlns="http://www.w3.org/2000/svg">
<g clip-path="url(#clip0_6_1271)">
<path fill-rule="evenodd" clip-rule="evenodd" d="M11.6667 5.83333H17.5C18.8807 5.83333 20 6.95262 20 8.33333V17.5C20 18.8807 18.8807 20 17.5 20H10.8333C9.45258 20 8.33333 18.8807 8.33333 17.5V14.1667H2.5C1.11929 14.1667 0 13.0474 0 11.6667V2.5C0 1.11929 1.11929 0 2.5 0H9.16667C10.5474 0 11.6667 1.11929 11.6667 2.5V5.83333ZM11.6667 7.5V9.16667H13.3333C13.3333 8.70642 13.7064 8.33333 14.1667 8.33333C14.6269 8.33333 15 8.70642 15 9.16667H15.8162C15.827 9.16642 15.8378 9.16642 15.8487 9.16667H16.6667C17.1269 9.16667 17.5 9.53975 17.5 10C17.5 10.4602 17.1269 10.8333 16.6667 10.8333H16.4987C16.1867 12.0631 15.7109 13.1881 15.073 14.2055C15.6568 14.8594 16.3416 15.4483 17.129 15.9732C17.5119 16.2286 17.6154 16.746 17.3602 17.1289C17.1048 17.5118 16.5874 17.6153 16.2045 17.3601C15.4027 16.8255 14.689 16.2288 14.0644 15.5705C13.5109 16.2118 12.8782 16.7997 12.1667 17.3333C11.7985 17.6095 11.2762 17.5348 11 17.1667C10.7238 16.7985 10.7985 16.2762 11.1667 16C11.8647 15.4764 12.4729 14.8954 12.992 14.2554C12.6863 13.8163 12.4127 13.3552 12.1714 12.8727C11.9656 12.461 12.1324 11.9605 12.5441 11.7547C12.9557 11.5488 13.4563 11.7157 13.6621 12.1273C13.7666 12.3362 13.8782 12.5404 13.9968 12.7398C14.314 12.1447 14.5719 11.5094 14.7711 10.8333H11.6667V11.6667C11.6667 12.7552 10.971 13.6812 10 14.0244V17.5C10 17.9602 10.3731 18.3333 10.8333 18.3333H17.5C17.9602 18.3333 18.3333 17.9602 18.3333 17.5V8.33333C18.3333 7.87309 17.9602 7.5 17.5 7.5H11.6667ZM5.18397 7.91667L5.83333 5.96857L6.4827 7.91667H5.18397ZM4.62841 9.58333H7.03826L7.54277 11.0968C7.6883 11.5335 8.16023 11.7694 8.59683 11.6239C9.0335 11.4783 9.26942 11.0064 9.12392 10.5698L6.6239 3.06981C6.37065 2.31007 5.29602 2.31007 5.04277 3.06981L2.54277 10.5698C2.39723 11.0064 2.63319 11.4783 3.06981 11.6239C3.50643 11.7694 3.97837 11.5335 4.1239 11.0968L4.62841 9.58333Z" fill="#11133C"/>
</g>
<defs>
<clipPath id="clip0_6_1271">
<rect width="20" height="20" fill="white"/>
</clipPath>
</defs>
</svg>
